<?xml version="1.0" encoding="UTF-8"?>
<svg width="994px" height="256px" viewBox="0 0 994 256" version="1.1" xmlns="http://www.w3.org/2000/svg" xmlns:xlink="http://www.w3.org/1999/xlink">
    <title>Group 3</title>
    <g id="Page-1" stroke="none" stroke-width="1" fill="none" fill-rule="evenodd">
        <g id="Artboard" transform="translate(-241.000000, -265.000000)" fill-rule="nonzero">
            <g id="Group-3" transform="translate(253.000000, 277.000000)">
                <g id="custivo" transform="translate(276.007812, 6.812500)" fill="#1F0053">
                    <path d="M62.0117188,169.140625 C50.6184896,169.140625 40.1692708,166.503906 30.6640625,161.230469 C21.09375,155.891927 13.6067708,148.632812 8.203125,139.453125 C2.734375,130.143229 0,119.921875 0,108.789062 C0,97.7213542 2.734375,87.5325521 8.203125,78.2226562 C13.671875,69.0429688 21.1588542,61.8164062 30.6640625,56.5429688 C40.1692708,51.2695312 50.6184896,48.6328125 62.0117188,48.6328125 C79.5247396,48.6328125 94.2382812,54.6875 106.152344,66.796875 L85.3515625,87.5976562 C78.8411458,80.7617188 71.0611979,77.34375 62.0117188,77.34375 C52.8971354,77.34375 45.2473958,80.3385417 39.0625,86.328125 C32.8776042,92.3177083 29.7851563,99.8046875 29.7851563,108.789062 C29.7851563,117.838542 32.8776042,125.358073 39.0625,131.347656 C45.1822917,137.402344 52.8320312,140.429688 62.0117188,140.429688 C70.9309896,140.429688 78.7109375,137.011719 85.3515625,130.175781 L106.347656,150.78125 C100.748698,156.705729 94.124349,161.246745 86.4746094,164.404297 C78.8248698,167.561849 70.6705729,169.140625 62.0117188,169.140625 Z" id="Path"></path>
                    <path d="M196.738281,106.835938 L196.738281,50.5859375 L226.328125,50.5859375 L226.328125,167.1875 L201.328125,167.1875 L198.886719,152.34375 C189.316406,163.541667 177.532552,169.140625 163.535156,169.140625 C148.626302,169.140625 136.907552,164.68099 128.378906,155.761719 C119.785156,146.842448 115.488281,134.635417 115.488281,119.140625 L115.488281,50.5859375 L145.078125,50.5859375 L145.078125,112.207031 C145.078125,131.282552 153.346354,140.820312 169.882812,140.820312 C178.671875,140.820312 185.345052,137.939453 189.902344,132.177734 C194.459635,126.416016 196.738281,117.96875 196.738281,106.835938 Z" id="Path"></path>
                    <path d="M281.054688,169.140625 C272.460938,169.140625 264.14388,168.017578 256.103516,165.771484 C248.063151,163.525391 240.917969,160.384115 234.667969,156.347656 L247.265625,133.398438 C252.278646,136.328125 257.877604,138.639323 264.0625,140.332031 C270.247396,142.089844 275.911458,142.96875 281.054688,142.96875 C294.401042,142.96875 301.074219,139.583333 301.074219,132.8125 C301.074219,129.752604 299.495443,127.246094 296.337891,125.292969 C293.180339,123.339844 287.890625,121.647135 280.46875,120.214844 C266.080729,117.610677 255.582682,113.378906 248.974609,107.519531 C242.366536,101.660156 239.0625,93.6848958 239.0625,83.59375 C239.0625,73.1119792 243.294271,64.6484375 251.757812,58.203125 C260.221354,51.8229167 271.321615,48.6328125 285.058594,48.6328125 C293.261719,48.6328125 300.651042,49.4140625 307.226562,50.9765625 C313.606771,52.4739583 320.279948,55.078125 327.246094,58.7890625 L314.0625,82.421875 C308.463542,79.4921875 303.548177,77.4739583 299.316406,76.3671875 C294.889323,75.2604167 290.136719,74.7395833 285.058594,74.8046875 C279.785156,74.9348958 275.69987,75.764974 272.802734,77.2949219 C269.905599,78.8248698 268.457031,80.9244792 268.457031,83.59375 C268.457031,86.5234375 269.986979,88.9322917 273.046875,90.8203125 C276.171875,92.7083333 281.575521,94.4335938 289.257812,95.9960938 C303.385417,98.9908854 313.785807,103.450521 320.458984,109.375 C327.132161,115.299479 330.46875,123.111979 330.46875,132.8125 C330.46875,143.880208 326.009115,152.701823 317.089844,159.277344 C308.170573,165.852865 296.158854,169.140625 281.054688,169.140625 Z" id="Path"></path>
                    <path d="M405.742188,137.792969 L418.730469,160.546875 C411.373698,166.276042 401.640625,169.140625 389.53125,169.140625 C377.356771,169.140625 367.851562,165.690104 361.015625,158.789062 C354.179688,151.888021 350.761719,142.415365 350.761719,130.371094 L350.761719,77.5390625 L333.964844,77.5390625 L333.964844,50.5859375 L350.761719,50.5859375 L350.761719,31.3476562 L380.351562,26.171875 L380.351562,50.5859375 L411.308594,50.5859375 L411.308594,77.5390625 L380.15625,77.5390625 L380.15625,128.613281 C380.15625,132.910156 381.263021,136.246745 383.476562,138.623047 C385.690104,140.999349 388.847656,142.1875 392.949219,142.1875 C397.766927,142.1875 402.03125,140.722656 405.742188,137.792969 Z" id="Path"></path>
                    <path d="M457.578125,29.1015625 C454.192708,32.4869792 450.091146,34.1796875 445.273438,34.1796875 C440.455729,34.1796875 436.354167,32.4869792 432.96875,29.1015625 C429.583333,25.78125 427.890625,21.7447917 427.890625,16.9921875 C427.890625,12.3046875 429.583333,8.30078125 432.96875,4.98046875 C436.419271,1.66015625 440.520833,0 445.273438,0 C450.026042,0 454.127604,1.66015625 457.578125,4.98046875 C460.963542,8.30078125 462.65625,12.3046875 462.65625,16.9921875 C462.65625,21.7447917 460.963542,25.78125 457.578125,29.1015625 Z M459.921875,50.5859375 L459.921875,167.1875 L430.527344,167.1875 L430.527344,50.5859375 L459.921875,50.5859375 Z" id="Shape"></path>
                    <polygon id="Path" points="499.648438 50.5859375 529.628906 112.988281 559.707031 50.5859375 593.105469 50.5859375 529.628906 170.605469 466.25 50.5859375"></polygon>
                    <path d="M675,161.132812 C665.690104,166.471354 655.371094,169.140625 644.042969,169.140625 C632.714844,169.140625 622.395833,166.471354 613.085938,161.132812 C603.645833,155.794271 596.25651,148.535156 590.917969,139.355469 C585.514323,130.045573 582.8125,119.856771 582.8125,108.789062 C582.8125,97.7213542 585.514323,87.5325521 590.917969,78.2226562 C596.25651,69.0429688 603.645833,61.8164062 613.085938,56.5429688 C622.460938,51.2695312 632.779948,48.6328125 644.042969,48.6328125 C655.30599,48.6328125 665.625,51.2695312 675,56.5429688 C684.440104,61.9466146 691.829427,69.2057292 697.167969,78.3203125 C702.50651,87.5651042 705.175781,97.7213542 705.175781,108.789062 C705.175781,119.921875 702.50651,130.110677 697.167969,139.355469 C691.829427,148.535156 684.440104,155.794271 675,161.132812 Z M644.042969,140.429688 C652.96224,140.429688 660.384115,137.402344 666.308594,131.347656 C672.233073,125.358073 675.195312,117.838542 675.195312,108.789062 C675.195312,99.8046875 672.200521,92.3177083 666.210938,86.328125 C660.221354,80.3385417 652.832031,77.34375 644.042969,77.34375 C635.123698,77.34375 627.669271,80.3385417 621.679688,86.328125 C615.625,92.3177083 612.597656,99.8046875 612.597656,108.789062 C612.597656,117.903646 615.625,125.423177 621.679688,131.347656 C627.669271,137.402344 635.123698,140.429688 644.042969,140.429688 Z" id="Shape"></path>
                </g>
                <g id="indir-(3)">
                    <path d="M104.004111,-6 C109.450582,-6 114.900173,-4.58991957 119.780925,-1.77537463 L198.216941,43.461327 C203.098406,46.2782103 207.044006,50.289143 209.769206,55.003202 C212.495082,59.7184316 214,65.137035 214,70.7686878 L213.994729,161.240288 C213.994729,166.874814 212.491103,172.293054 209.766509,177.007491 C207.042535,181.720857 203.097983,185.730888 198.21272,188.550271 L119.771458,233.782199 C114.892074,236.592903 109.443075,238 103.997364,238 C98.5512778,238 93.1055839,236.595772 88.2209385,233.780855 L9.78067359,188.549501 C4.89905905,185.732924 0.954060147,181.722129 -1.77056022,177.007646 C-4.49566151,172.29233 -6,166.873113 -6,161.240288 L-6,70.7683382 C-6,65.1342438 -4.495966,59.7142327 -1.77056866,54.998836 C0.953962232,50.2849385 4.89911648,46.2751468 9.78193366,43.4604195 L88.2217562,-1.77217483 C93.0970299,-4.59084294 98.5552367,-6 104.004111,-6 Z" id="Shape" stroke="#E6E6E6" stroke-width="12" fill="#1F0053"></path>
                    <path d="M105.263782,24.4556057 L165.877327,59.4139221 C167.082942,60.1092499 167.496612,61.6502688 166.801284,62.8558841 C166.579878,63.2397769 166.261149,63.5584937 165.877249,63.7798866 L105.270983,98.7311127 C104.491919,99.1803937 103.532468,99.1804428 102.753358,98.7312415 L42.1323383,63.7797686 C40.9266269,63.0846072 40.5127444,61.5436455 41.2079057,60.3379341 C41.4293049,59.9539318 41.7480739,59.6351202 42.1320466,59.4136697 L102.745787,24.4556001 C103.524969,24.0062185 104.484602,24.0062206 105.263782,24.4556057 Z" id="Path" fill="#03E598"></path>
                    <path d="M25.5658557,157.984926 L25.5658557,88.0695198 C25.5658557,86.6777623 26.6940981,85.5495198 28.0858557,85.5495198 C28.5277977,85.5495198 28.9619685,85.6657438 29.3448076,85.886531 L89.9624967,120.845371 C90.742778,121.295367 91.2235448,122.127618 91.2235448,123.02836 L91.2235448,192.937544 C91.2235448,194.329302 90.0953023,195.457544 88.7035448,195.457544 C88.2616685,195.457544 87.8275601,195.341355 87.444761,195.12063 L26.8270719,160.168012 C26.0466959,159.718041 25.5658557,158.885737 25.5658557,157.984926 Z" id="Path" fill="#03E598"></path>
                    <path d="M116.783328,197.298157 L116.783328,123.033854 C116.783328,122.133057 117.264154,121.300764 118.044511,120.850788 L178.6622,85.8969257 C179.867874,85.2017 181.408858,85.6155004 182.104084,86.8211747 C182.324821,87.2039818 182.441017,87.6381027 182.441017,88.0799921 L182.441017,157.988866 C182.441017,158.889732 181.960118,159.722079 181.179667,160.172029 L116.783328,197.298157 L116.783328,197.298157 Z" id="Path" fill="#03E598"></path>
                </g>
            </g>
        </g>
    </g>
</svg>